<?xml version="1.0" standalone="no"?>
<!DOCTYPE svg PUBLIC "-//W3C//DTD SVG 20010904//EN"
 "http://www.w3.org/TR/2001/REC-SVG-20010904/DTD/svg10.dtd">
<svg version="1.0" xmlns="http://www.w3.org/2000/svg"
 width="96.000000pt" height="96.000000pt" viewBox="0 0 96.000000 96.000000"
 preserveAspectRatio="xMidYMid meet">
<metadata>
Created by potrace 1.14, written by Peter Selinger 2001-2017
</metadata>
<g transform="translate(0.000000,96.000000) scale(0.100000,-0.100000)"
fill="#000000" stroke="none">
<path d="M448 698 c-16 -6 -28 -18 -30 -31 -3 -20 -9 -22 -63 -23 -33 -1 -63
-2 -66 -3 -12 -2 3 -50 21 -66 11 -10 30 -18 44 -19 l25 -1 -22 -25 c-12 -14
-23 -27 -25 -30 -2 -2 -71 -5 -155 -5 -84 0 -158 -4 -165 -8 -33 -21 7 -109
61 -132 17 -7 35 -12 38 -9 3 2 12 -8 19 -21 12 -22 36 -37 65 -40 17 -2 65
29 65 42 0 7 3 13 8 14 4 0 18 2 31 3 15 2 32 -6 45 -21 38 -44 85 -66 137
-66 51 1 107 28 133 65 22 30 63 30 87 -1 37 -46 103 -44 129 4 7 13 16 23 19
21 3 -3 21 2 38 9 54 23 93 108 61 132 -7 5 -82 9 -165 8 l-153 -1 -20 28
c-24 32 -25 42 -6 35 19 -7 62 26 69 53 7 26 -8 34 -68 36 -66 2 -65 2 -65 18
0 32 -48 49 -92 34z m69 -72 l9 -42 -44 0 -44 0 6 39 c9 52 11 55 39 50 19 -4
26 -14 34 -47z m-112 -26 c0 -16 -33 -20 -66 -8 -30 11 -12 23 33 22 20 -1 33
-6 33 -14z m228 3 c-3 -7 -14 -14 -24 -14 -10 -1 -26 -2 -36 -3 -23 -1 -28 21
-6 26 39 8 70 3 66 -9z m-83 -69 c38 -23 60 -64 60 -114 0 -51 -22 -91 -63
-115 -37 -22 -98 -21 -137 1 -81 49 -82 177 -1 227 34 21 105 21 141 1z m-233
-114 c1 -41 -1 -45 -23 -45 -14 0 -28 9 -35 21 -26 49 -94 50 -130 2 -22 -29
-64 -18 -84 22 -9 17 -14 34 -11 38 2 4 67 7 143 7 l140 0 0 -45z m609 37 c12
-11 -28 -67 -51 -73 -19 -5 -32 0 -52 20 -14 14 -30 27 -34 27 -5 1 -15 2 -21
3 -22 4 -66 -23 -73 -43 -3 -11 -14 -18 -27 -17 -19 1 -22 7 -24 41 0 22 3 42
7 45 11 7 268 4 275 -3z m-692 -79 c14 -23 -3 -52 -33 -56 -42 -6 -67 38 -39
66 17 17 58 11 72 -10z m564 10 c17 -17 15 -42 -6 -61 -35 -32 -92 22 -62 58
15 18 52 19 68 3z"/>
<path d="M399 459 c-6 -3 -9 -17 -7 -30 3 -23 7 -24 78 -25 41 0 81 1 88 4 13
4 17 51 5 53 -27 5 -156 3 -164 -2z"/>
</g>
</svg>
